# xmcd
#
# Track frame offsets: 
#        150
#        17955
#        41236
#        59239
#        73683
#        96742
#        116717
#        118359
#        145779
#        163128
#        183606
#        211292
#        220609
#
# Disc length: 3192 seconds
#
# Revision: 0
# Processed by: cddbd v1.5.2PL0 Copyright (c) Steve Scherf et al.
# Submitted via: ExactAudioCopy v0.99pb4
#
DISCID=db0c760d
DTITLE=Kutiman - Kutiman
DYEAR=2005
DGENRE=Funk
TTITLE0=Bango Fields
TTITLE1=No Reason For You feat.Elran Dekel
TTITLE2=Music Is Ruling My World feat.Karolina
TTITLE3=Take A Minuites
TTITLE4=No Groove Where I Come From feat.Elran Dekel
TTITLE5=Losing It feat.Karolina
TTITLE6=Skit
TTITLE7=I Just Wanna Make You Love To You feat.Chaka Moon
TTITLE8=Chaser
TTITLE9=Once You're Near Me feat.Elran Dekel
TTITLE10=Escape Route
TTITLE11=Trumpet Woman feat.Karolina
TTITLE12=And Out
EXTD=
EXTT0=
EXTT1=
EXTT2=
EXTT3=
EXTT4=
EXTT5=
EXTT6=
EXTT7=
EXTT8=
EXTT9=
EXTT10=
EXTT11=
EXTT12=
PLAYORDER=
